name ./resultDataOpenSim/trcMotMarkerGrf/sub09/grf-14-03.mot
datacolumns 19
datarows 30
range 1.45600000 1.57200000
endheader

                time	     ground_force_vx	     ground_force_vy	     ground_force_vz	     ground_force_px	     ground_force_py	     ground_force_pz	   l_ground_force_vx	   l_ground_force_vy	   l_ground_force_vz	   l_ground_force_px	   l_ground_force_py	   l_ground_force_pz	     ground_torque_x	     ground_torque_y	     ground_torque_z	   l_ground_torque_x	   l_ground_torque_y	   l_ground_torque_z	
          1.45600000	        -35.14298472	        463.41616461	         -6.73640486	          1.09903846	          0.00000000	          0.06818759	          0.00000000	          0.00000000	          0.00000000	          0.00000000	          0.00000000	          0.00000000	          0.00000000	          0.33226177	          0.00000000	          0.00000000	          0.00000000	          0.00000000	
          1.46000000	        -34.71337546	        457.74295188	         -3.43683852	          1.09978828	          0.00000000	          0.06790678	          0.00000000	          0.00000000	          0.00000000	          0.00000000	          0.00000000	          0.00000000	          0.00000000	          0.77031267	          0.00000000	          0.00000000	          0.00000000	          0.00000000	
          1.46400000	        -34.04802456	        452.39692518	         -1.06161932	          1.10047097	          0.00000000	          0.06767482	          0.00000000	          0.00000000	          0.00000000	          0.00000000	          0.00000000	          0.00000000	          0.00000000	          1.11303773	          0.00000000	          0.00000000	          0.00000000	          0.00000000	
          1.46800000	        -32.87362371	        447.35924508	          0.08599219	          1.10104985	          0.00000000	          0.06750285	          0.00000000	          0.00000000	          0.00000000	          0.00000000	          0.00000000	          0.00000000	          0.00000000	          1.31355396	          0.00000000	          0.00000000	          0.00000000	          0.00000000	
          1.47200000	        -31.08293971	        442.61158825	         -0.07738493	          1.10149858	          0.00000000	          0.06739825	          0.00000000	          0.00000000	          0.00000000	          0.00000000	          0.00000000	          0.00000000	          0.00000000	          1.35333353	          0.00000000	          0.00000000	          0.00000000	          0.00000000	
          1.47600000	        -28.75179704	        438.11732350	         -1.41257659	          1.10183927	          0.00000000	          0.06737154	          0.00000000	          0.00000000	          0.00000000	          0.00000000	          0.00000000	          0.00000000	          0.00000000	          1.24430363	          0.00000000	          0.00000000	          0.00000000	          0.00000000	
          1.48000000	        -26.11452787	        433.84736911	         -3.58974718	          1.10211060	          0.00000000	          0.06741866	          0.00000000	          0.00000000	          0.00000000	          0.00000000	          0.00000000	          0.00000000	          0.00000000	          1.02515921	          0.00000000	          0.00000000	          0.00000000	          0.00000000	
          1.48400000	        -23.50322729	        429.81708934	         -6.15293479	          1.10235197	          0.00000000	          0.06751024	          0.00000000	          0.00000000	          0.00000000	          0.00000000	          0.00000000	          0.00000000	          0.00000000	          0.75302404	          0.00000000	          0.00000000	          0.00000000	          0.00000000	
          1.48800000	        -21.25767122	        426.08349855	         -8.61107783	          1.10261526	          0.00000000	          0.06760696	          0.00000000	          0.00000000	          0.00000000	          0.00000000	          0.00000000	          0.00000000	          0.00000000	          0.49224244	          0.00000000	          0.00000000	          0.00000000	          0.00000000	
          1.49200000	        -19.62383353	        422.70992794	        -10.52122611	          1.10293996	          0.00000000	          0.06767687	          0.00000000	          0.00000000	          0.00000000	          0.00000000	          0.00000000	          0.00000000	          0.00000000	          0.30241183	          0.00000000	          0.00000000	          0.00000000	          0.00000000	
          1.49600000	        -18.68233878	        419.73904907	        -11.54805470	          1.10335052	          0.00000000	          0.06770109	          0.00000000	          0.00000000	          0.00000000	          0.00000000	          0.00000000	          0.00000000	          0.00000000	          0.22780026	          0.00000000	          0.00000000	          0.00000000	          0.00000000	
          1.50000000	        -18.33486523	        417.19244203	        -11.51048242	          1.10382298	          0.00000000	          0.06766851	          0.00000000	          0.00000000	          0.00000000	          0.00000000	          0.00000000	          0.00000000	          0.00000000	          0.29001771	          0.00000000	          0.00000000	          0.00000000	          0.00000000	
          1.50400000	        -18.34233886	        415.07844506	        -10.40915947	          1.10430761	          0.00000000	          0.06756710	          0.00000000	          0.00000000	          0.00000000	          0.00000000	          0.00000000	          0.00000000	          0.00000000	          0.48519224	          0.00000000	          0.00000000	          0.00000000	          0.00000000	
          1.50800000	        -18.39110854	        413.39719645	         -8.42228494	          1.10473724	          0.00000000	          0.06739357	          0.00000000	          0.00000000	          0.00000000	          0.00000000	          0.00000000	          0.00000000	          0.00000000	          0.78598116	          0.00000000	          0.00000000	          0.00000000	          0.00000000	
          1.51200000	        -18.16988153	        412.14028092	         -5.87406738	          1.10505376	          0.00000000	          0.06715338	          0.00000000	          0.00000000	          0.00000000	          0.00000000	          0.00000000	          0.00000000	          0.00000000	          1.14770685	          0.00000000	          0.00000000	          0.00000000	          0.00000000	
          1.51600000	        -17.45365218	        411.28136832	         -3.18225575	          1.10521941	          0.00000000	          0.06686581	          0.00000000	          0.00000000	          0.00000000	          0.00000000	          0.00000000	          0.00000000	          0.00000000	          1.51710939	          0.00000000	          0.00000000	          0.00000000	          0.00000000	
          1.52000000	        -16.16472858	        410.77807218	         -0.78695212	          1.10524338	          0.00000000	          0.06656447	          0.00000000	          0.00000000	          0.00000000	          0.00000000	          0.00000000	          0.00000000	          0.00000000	          1.84199464	          0.00000000	          0.00000000	          0.00000000	          0.00000000	
          1.52400000	        -14.37506340	        410.59174584	          0.93414690	          1.10518206	          0.00000000	          0.06628411	          0.00000000	          0.00000000	          0.00000000	          0.00000000	          0.00000000	          0.00000000	          0.00000000	          2.08026418	          0.00000000	          0.00000000	          0.00000000	          0.00000000	
          1.52800000	        -12.26015816	        410.69694126	          1.74077230	          1.10508792	          0.00000000	          0.06604416	          0.00000000	          0.00000000	          0.00000000	          0.00000000	          0.00000000	          0.00000000	          0.00000000	          2.20701370	          0.00000000	          0.00000000	          0.00000000	          0.00000000	
          1.53200000	        -10.03956884	        411.07410075	          1.57158803	          1.10501064	          0.00000000	          0.06585798	          0.00000000	          0.00000000	          0.00000000	          0.00000000	          0.00000000	          0.00000000	          0.00000000	          2.21851709	          0.00000000	          0.00000000	          0.00000000	          0.00000000	
          1.53600000	         -7.92499136	        411.71821629	          0.55127206	          1.10500033	          0.00000000	          0.06573458	          0.00000000	          0.00000000	          0.00000000	          0.00000000	          0.00000000	          0.00000000	          0.00000000	          2.13221066	          0.00000000	          0.00000000	          0.00000000	          0.00000000	
          1.54000000	         -6.07228069	        412.67583904	         -1.04099859	          1.10508536	          0.00000000	          0.06567228	          0.00000000	          0.00000000	          0.00000000	          0.00000000	          0.00000000	          0.00000000	          0.00000000	          1.98247879	          0.00000000	          0.00000000	          0.00000000	          0.00000000	
          1.54400000	         -4.54100135	        414.05842349	         -2.84078199	          1.10525404	          0.00000000	          0.06565319	          0.00000000	          0.00000000	          0.00000000	          0.00000000	          0.00000000	          0.00000000	          0.00000000	          1.81311024	          0.00000000	          0.00000000	          0.00000000	          0.00000000	
          1.54800000	         -3.28376651	        415.98604785	         -4.47620764	          1.10545542	          0.00000000	          0.06565245	          0.00000000	          0.00000000	          0.00000000	          0.00000000	          0.00000000	          0.00000000	          0.00000000	          1.66829381	          0.00000000	          0.00000000	          0.00000000	          0.00000000	
          1.55200000	         -2.17044313	        418.51262807	         -5.63140785	          1.10564493	          0.00000000	          0.06564978	          0.00000000	          0.00000000	          0.00000000	          0.00000000	          0.00000000	          0.00000000	          0.00000000	          1.58437275	          0.00000000	          0.00000000	          0.00000000	          0.00000000	
          1.55600000	         -1.03084002	        421.61918730	         -6.09739356	          1.10580825	          0.00000000	          0.06563196	          0.00000000	          0.00000000	          0.00000000	          0.00000000	          0.00000000	          0.00000000	          0.00000000	          1.58408142	          0.00000000	          0.00000000	          0.00000000	          0.00000000	
          1.56000000	          0.29993471	        425.27250022	         -5.80746155	          1.10593420	          0.00000000	          0.06558991	          0.00000000	          0.00000000	          0.00000000	          0.00000000	          0.00000000	          0.00000000	          0.00000000	          1.67396855	          0.00000000	          0.00000000	          0.00000000	          0.00000000	
          1.56400000	          1.93872785	        429.46787605	         -4.84441247	          1.10599983	          0.00000000	          0.06551828	          0.00000000	          0.00000000	          0.00000000	          0.00000000	          0.00000000	          0.00000000	          0.00000000	          1.84474140	          0.00000000	          0.00000000	          0.00000000	          0.00000000	
          1.56800000	          3.92221452	        434.21241848	         -3.42037045	          1.10599250	          0.00000000	          0.06541990	          0.00000000	          0.00000000	          0.00000000	          0.00000000	          0.00000000	          0.00000000	          0.00000000	          2.07377376	          0.00000000	          0.00000000	          0.00000000	          0.00000000	
          1.57200000	          6.20255224	        439.48778692	         -1.83723180	          1.10593256	          0.00000000	          0.06530936	          0.00000000	          0.00000000	          0.00000000	          0.00000000	          0.00000000	          0.00000000	          0.00000000	          2.32910231	          0.00000000	          0.00000000	          0.00000000	          0.00000000	
